HIERARCHY
ROOT SimulationBone
{
	OFFSET 0.000000 0.000000 0.000000
	CHANNELS 6 Xposition Yposition Zposition Zrotation Yrotation Xrotation 
	JOINT Hips
	{
		OFFSET 0.000000 0.000000 0.000000
		CHANNELS 6 Xposition Yposition Zposition Zrotation Yrotation Xrotation 
		JOINT LeftUpLeg
		{
			OFFSET 0.103462 1.857831 10.548502
			CHANNELS 3 Zrotation Yrotation Xrotation
			JOINT LeftLeg
			{
				OFFSET 43.500008 -0.000027 -0.000004
				CHANNELS 3 Zrotation Yrotation Xrotation
				JOINT LeftFoot
				{
					OFFSET 42.372200 0.000011 -0.000002
					CHANNELS 3 Zrotation Yrotation Xrotation
					JOINT LeftToe
					{
						OFFSET 17.299999 -0.000001 -0.000002
						CHANNELS 3 Zrotation Yrotation Xrotation
						End Site
						{
							OFFSET 0.000000 0.000000 0.000000
						}
					}
				}
			}
		}
		JOINT RightUpLeg
		{
			OFFSET 0.103458 1.857828 -10.548501
			CHANNELS 3 Zrotation Yrotation Xrotation
			JOINT RightLeg
			{
				OFFSET 43.500038 -0.000031 0.000011
				CHANNELS 3 Zrotation Yrotation Xrotation
				JOINT RightFoot
				{
					OFFSET 42.372257 -0.000004 0.000010
					CHANNELS 3 Zrotation Yrotation Xrotation
					JOINT RightToe
					{
						OFFSET 17.299994 -0.000005 0.000004
						CHANNELS 3 Zrotation Yrotation Xrotation
						End Site
						{
							OFFSET 0.000000 0.000000 0.000000
						}
					}
				}
			}
		}
		JOINT Spine
		{
			OFFSET 6.901966 -2.603733 0.000000
			CHANNELS 3 Zrotation Yrotation Xrotation
			JOINT Spine1
			{
				OFFSET 12.588101 0.000002 0.000000
				CHANNELS 3 Zrotation Yrotation Xrotation
				JOINT Spine2
				{
					OFFSET 12.343201 0.000004 -0.000002
					CHANNELS 3 Zrotation Yrotation Xrotation
					JOINT Neck
					{
						OFFSET 25.832895 -0.000004 0.000002
						CHANNELS 3 Zrotation Yrotation Xrotation
						JOINT Head
						{
							OFFSET 11.766604 0.000011 0.000001
							CHANNELS 3 Zrotation Yrotation Xrotation
							End Site
							{
								OFFSET 0.000000 0.000000 0.000000
							}
						}
					}
					JOINT LeftShoulder
					{
						OFFSET 19.745903 -1.480368 6.000108
						CHANNELS 3 Zrotation Yrotation Xrotation
						JOINT LeftArm
						{
							OFFSET 11.284126 -0.000007 -0.000022
							CHANNELS 3 Zrotation Yrotation Xrotation
							JOINT LeftForeArm
							{
								OFFSET 33.000053 0.000001 0.000028
								CHANNELS 3 Zrotation Yrotation Xrotation
								JOINT LeftHand
								{
									OFFSET 25.200005 0.000019 0.000013
									CHANNELS 3 Zrotation Yrotation Xrotation
									End Site
									{
										OFFSET 0.000000 0.000000 0.000000
									}
								}
							}
						}
					}
					JOINT RightShoulder
					{
						OFFSET 19.746094 -1.480373 -6.000072
						CHANNELS 3 Zrotation Yrotation Xrotation
						JOINT RightArm
						{
							OFFSET 11.284138 -0.000017 -0.000010
							CHANNELS 3 Zrotation Yrotation Xrotation
							JOINT RightForeArm
							{
								OFFSET 33.000092 0.000013 0.000009
								CHANNELS 3 Zrotation Yrotation Xrotation
								JOINT RightHand
								{
									OFFSET 25.199776 0.000139 0.000415
									CHANNELS 3 Zrotation Yrotation Xrotation
									End Site
									{
										OFFSET 0.000000 0.000000 0.000000
									}
								}
							}
						}
					}
				}
			}
		}
	}
}
MOTION
Frames: 6
Frame Time: 0.016667
-26.600327 0.000000 -257.291246 0.000000 14.430798 0.000000 -0.440264 87.591342 -1.248008 93.385497 -3.027370 179.025548 -165.383726 0.934902 176.195110 -15.875127 -2.650099 -8.110429 85.281259 4.356961 -6.842737 21.454549 0.003088 0.000001 156.749930 -1.382959 -170.510514 -8.308432 3.771854 12.538075 66.282277 -8.666526 1.636797 21.454556 -0.003107 -0.000020 8.185083 -0.432975 -2.338529 6.372643 -0.737043 -4.697333 6.055662 -0.765230 -4.692804 3.809634 -13.246041 -21.762800 -18.146467 22.579453 -32.699107 143.393772 -83.420722 35.308041 -61.283562 37.166667 7.193212 -69.641357 -12.483096 2.302454 -1.759027 1.618175 46.828140 -155.000649 69.395617 27.147717 -1.139864 -58.193313 -36.307626 -31.369612 14.317529 -1.239262 7.736521 -9.716504 -19.535485 
-25.036021 0.000000 -257.798599 0.000000 13.960315 0.000000 -0.386048 87.183792 -1.305508 93.641554 -2.941797 178.697328 -164.424496 1.013793 175.181621 -16.942002 -2.629104 -7.820334 85.560631 4.092014 -7.272744 21.454545 0.003091 0.000001 156.573016 -1.699204 -168.032093 -10.634149 3.390212 11.819510 66.121004 -8.683097 0.140898 21.454558 -0.003108 -0.000019 8.216528 -0.352758 -2.247294 6.431795 -0.580569 -4.510677 6.114742 -0.607634 -4.507093 4.407673 -13.349889 -22.103081 -18.319906 22.533626 -33.033936 144.305417 -83.425129 34.389792 -61.844165 37.388437 6.296719 -69.168806 -12.619283 2.292683 -1.913528 1.328080 47.102227 -155.171679 69.389788 26.971376 -1.818502 -57.777463 -36.828652 -31.015062 14.179221 -1.223283 8.055730 -10.410371 -21.607083 
-23.472678 0.000000 -258.286856 0.000000 13.441245 0.000000 -0.242265 86.763305 -1.340156 93.989411 -2.700277 178.596048 -163.450222 0.803876 174.092370 -18.267726 -2.634104 -7.366987 85.674407 3.684630 -7.812566 21.454547 0.003092 0.000000 156.041051 -1.882542 -165.811404 -14.201294 2.904339 10.853560 66.129772 -8.936843 -2.544051 21.454559 -0.003107 -0.000018 8.257874 -0.214867 -2.189245 6.508844 -0.306739 -4.387049 6.191746 -0.333064 -4.385117 4.949457 -13.437642 -22.471711 -18.694276 22.297982 -33.379447 145.820537 -83.372121 32.867306 -62.167826 37.879408 5.466455 -68.578741 -12.869384 2.286119 -1.693056 1.211586 47.314013 -155.428065 69.344425 26.707981 -2.531720 -57.296961 -37.086795 -30.622685 14.053816 -1.207397 8.535230 -10.610890 -23.309585 
-21.910134 0.000000 -258.754148 0.000000 12.870346 0.000000 -0.014023 86.402313 -1.332439 94.414159 -2.302717 178.785158 -162.477469 0.326004 172.969978 -19.748411 -2.573954 -6.821038 85.320250 3.199476 -8.248665 21.454553 0.003092 -0.000000 155.607077 -2.100996 -164.132506 -17.866897 2.418639 10.136772 66.480361 -9.609800 -6.002515 21.454560 -0.003106 -0.000017 8.305995 -0.023520 -2.162920 6.597736 0.075846 -4.323622 6.280613 0.049895 -4.323996 5.312365 -13.567612 -22.906561 -19.052550 22.045342 -33.799685 147.446116 -83.234519 31.238251 -62.256429 38.664470 4.699254 -67.773562 -13.186657 2.275508 -1.384606 1.130265 47.513708 -155.280853 69.264310 26.861799 -3.357894 -56.887349 -37.006818 -30.145135 13.915450 -1.189089 9.018220 -10.431132 -24.601983 
-20.348464 0.000000 -259.199660 0.000000 12.249171 0.000000 0.275097 86.154890 -1.267665 94.895246 -1.769293 179.268964 -161.599383 -0.371160 171.797109 -21.401363 -2.338574 -6.231723 84.260359 2.676749 -8.430420 21.454556 0.003091 0.000000 155.678391 -2.546507 -163.158680 -20.668267 2.081143 10.016290 67.325474 -10.655736 -9.500972 21.454559 -0.003105 -0.000017 8.356044 0.207867 -2.158639 6.689203 0.539703 -4.301699 6.372061 0.513876 -4.304865 5.458870 -13.744337 -23.448529 -19.256152 21.936445 -34.365871 148.796775 -83.006340 29.890854 -62.144948 39.747447 4.002699 -66.617210 -13.526917 2.252542 -1.299416 0.910105 47.732236 -154.390283 69.129609 27.783961 -4.351234 -56.630741 -36.573678 -29.553762 13.730965 -1.166037 9.328791 -9.998359 -25.463453 
-18.789707 0.000000 -259.623621 0.000000 11.585628 0.000000 0.580360 85.944206 -1.171074 95.393313 -1.190929 179.919955 -161.101049 -1.187198 170.429366 -23.686258 -1.774493 -5.495987 82.660226 1.986260 -8.712608 21.454557 0.003090 0.000001 155.810398 -3.108310 -163.243871 -23.449224 1.928017 10.539939 68.941750 -11.520437 -11.543171 21.454558 -0.003106 -0.000017 8.394211 0.450466 -2.167145 6.756586 1.026239 -4.304497 6.439408 1.000386 -4.310593 5.698692 -13.751150 -24.077942 -19.628239 21.844603 -35.040806 149.816684 -82.707455 28.880228 -61.856856 41.089358 3.462391 -65.066362 -13.959128 2.221177 -1.295842 0.490232 47.838060 -153.460566 68.836897 28.750798 -5.379043 -56.300281 -35.953753 -28.832997 13.473470 -1.135764 9.375913 -9.221528 -25.669170 
